Coordinates
version=1
nRows=11
nColumns=46
inDegrees=yes

Units are S.I. units (second, meters, Newtons, ...)
Angles are in degrees.

endheader
time	pelvis_tilt	pelvis_list	pelvis_rotation	pelvis_tx	pelvis_ty	pelvis_tz	bb_angle	bb_tx	bb_ty	bb_tz	hip_flexion_r	hip_adduction_r	hip_rotation_r	knee_angle_r	knee_angle_r_beta	ankle_angle_r	subtalar_angle_r	mtp_angle_r	crank_angle_r	hip_flexion_l	hip_adduction_l	hip_rotation_l	knee_angle_l	knee_angle_l_beta	ankle_angle_l	subtalar_angle_l	mtp_angle_l	crank_angle_l	lumbar_extension	lumbar_bending	lumbar_rotation	arm_flex_r	arm_add_r	arm_rot_r	elbow_flex_r	pro_sup_r	wrist_flex_r	wrist_dev_r	arm_flex_l	arm_add_l	arm_rot_l	elbow_flex_l	pro_sup_l	wrist_flex_l	wrist_dev_l
      0.00000000	    -12.93364020	     -0.87507834	      2.21317347	      0.19537259	      1.04188351	     -0.24131763	      0.00000000	      0.50000000	      0.00000000	      0.25000000	     47.83852184	     -4.52035014	      1.65139381	     89.24676271	      1.55764986	     20.57104508	     -4.01082450	      0.00000000	      0.00000000	     70.40396552	     -6.78226262	     -0.85255852	     71.62505693	      1.25009307	     -0.43104726	     -3.09669948	      0.00000000	      0.00000000	    -57.75674873	      1.47366225	     -1.35887258	     88.78083864	    -13.41078934	     38.27795080	     38.56719998	     40.06603720	      0.00000000	      0.00000000	     86.31836161	    -18.20906388	     39.14218634	     46.73522121	     41.21800590	      0.00000000	      0.00000000
      0.00500000	    -12.95334445	     -0.85190153	      2.20647535	      0.19537700	      1.04185474	     -0.24130801	      0.00000000	      0.50000000	      0.00000000	      0.25000000	     47.86251027	     -4.53318644	      1.67594473	     89.25080845	      1.55772047	     20.58844335	     -3.97810469	      0.00000000	      0.00000000	     70.41718006	     -6.77622413	     -0.87340928	     71.62103527	      1.25002288	     -0.45831754	     -3.11304414	      0.00000000	      0.00000000	    -57.72812129	      1.46869722	     -1.43819496	     88.79171416	    -13.13643919	     37.98766384	     38.29233660	     40.06964865	      0.00000000	      0.00000000	     86.24938676	    -18.23033146	     38.83237447	     46.74163136	     41.33152825	      0.00000000	      0.00000000
      0.01000000	    -12.93855174	     -0.86297976	      2.24171222	      0.19541076	      1.04190531	     -0.24138299	      0.00000000	      0.50000000	      0.00000000	      0.25000000	     47.82558398	     -4.55904543	      1.63376137	     89.23434827	      1.55743318	     20.59663714	     -3.98213117	      0.00000000	      0.00000000	     70.40327001	     -6.74541381	     -0.85711592	     71.61790265	      1.24996820	     -0.43100148	     -3.08373773	      0.00000000	      0.00000000	    -57.75923397	      1.51077320	     -1.40577133	     88.79094468	    -13.25110877	     38.05149703	     38.37171485	     40.24639671	      0.00000000	      0.00000000	     86.33244413	    -18.36011839	     39.14950450	     46.80636732	     41.54336054	      0.00000000	      0.00000000
      0.01500000	    -12.87700396	     -0.88165050	      2.30598457	      0.19549004	      1.04198248	     -0.24134565	      0.00000000	      0.50000000	      0.00000000	      0.25000000	     47.78195694	     -4.61151003	      1.55687044	     89.28356414	      1.55829216	     20.59175498	     -3.86478504	      0.00000000	      0.00000000	     70.35067640	     -6.69590976	     -0.79068666	     71.63451638	      1.25025817	     -0.40227852	     -3.10347488	      0.00000000	      0.00000000	    -57.89480158	      1.58405906	     -1.36542743	     88.75107852	    -13.23755163	     37.67899125	     38.62696221	     40.40986311	      0.00000000	      0.00000000	     86.21398866	    -18.18331370	     38.56026873	     47.03180629	     41.66478322	      0.00000000	      0.00000000
      0.02000000	    -13.05311055	     -0.85160843	      2.22593425	      0.19531573	      1.04186046	     -0.24133799	      0.00000000	      0.50000000	      0.00000000	      0.25000000	     48.02254456	     -4.58422777	      1.66669055	     89.31058075	      1.55876369	     20.54256675	     -3.97782407	      0.00000000	      0.00000000	     70.53563764	     -6.74076212	     -0.83108823	     71.63764205	      1.25031272	     -0.45100586	     -3.12888300	      0.00000000	      0.00000000	    -57.61371469	      1.50002873	     -1.51802600	     88.76819173	    -13.00495663	     37.91638227	     38.09079270	     40.46193369	      0.00000000	      0.00000000	     86.18570742	    -18.26259264	     38.71202396	     46.65715398	     41.74367771	      0.00000000	      0.00000000
      0.02500000	    -13.05531350	     -0.85023662	      2.21394828	      0.19534259	      1.04181257	     -0.24124243	      0.00000000	      0.50000000	      0.00000000	      0.25000000	     48.02475679	     -4.57405539	      1.65722860	     89.31274892	      1.55880153	     20.50098168	     -4.02773641	      0.00000000	      0.00000000	     70.54990974	     -6.76372444	     -0.85530099	     71.65616518	      1.25063601	     -0.44784144	     -3.16289793	      0.00000000	      0.00000000	    -57.59653866	      1.47962753	     -1.45773086	     88.78154614	    -13.15555220	     38.18211038	     38.13352940	     40.56269505	      0.00000000	      0.00000000	     86.22555004	    -18.26699676	     38.87089851	     46.65298514	     41.86701953	      0.00000000	      0.00000000
      0.03000000	    -12.93308686	     -0.89468143	      2.22022164	      0.19537480	      1.04208999	     -0.24124759	      0.00000000	      0.50000000	      0.00000000	      0.25000000	     47.85960771	     -4.53297439	      1.62174912	     89.26608418	      1.55798708	     20.55371728	     -3.98158542	      0.00000000	      0.00000000	     70.42117230	     -6.78855272	     -0.81777510	     71.66122278	      1.25072428	     -0.42760586	     -3.18066209	      0.00000000	      0.00000000	    -57.85345355	      1.52915116	     -1.32941553	     88.69363900	    -13.32061823	     37.34125784	     38.91424854	     40.71986622	      0.00000000	      0.00000000	     86.08871674	    -18.15597232	     38.05982546	     47.23822211	     41.99159120	      0.00000000	      0.00000000
      0.03500000	    -13.03530682	     -0.78275203	      2.27545123	      0.19536028	      1.04194853	     -0.24142694	      0.00000000	      0.50000000	      0.00000000	      0.25000000	     47.98603396	     -4.71637427	      1.64685532	     89.30432530	      1.55865451	     20.58985156	     -3.82845340	      0.00000000	      0.00000000	     70.49578073	     -6.64524735	     -0.87637460	     71.61728727	      1.24995746	     -0.40140132	     -3.12198232	      0.00000000	      0.00000000	    -57.64849178	      1.48990095	     -1.53300179	     88.74324806	    -12.95518746	     37.40808048	     38.08046855	     40.67487580	      0.00000000	      0.00000000	     86.20266892	    -18.00718121	     38.23137808	     46.53136884	     41.97847383	      0.00000000	      0.00000000
      0.04000000	    -13.04982387	     -0.78604312	      2.21717408	      0.19536888	      1.04194824	     -0.24129050	      0.00000000	      0.50000000	      0.00000000	      0.25000000	     48.00859568	     -4.64465212	      1.70163149	     89.29113659	      1.55842433	     20.55478313	     -3.89608008	      0.00000000	      0.00000000	     70.50436709	     -6.71511144	     -0.91038965	     71.62231218	      1.25004517	     -0.40832665	     -3.19085791	      0.00000000	      0.00000000	    -57.59902491	      1.47201933	     -1.51534666	     88.74153129	    -12.53817255	     36.75392456	     37.49985710	     41.11898616	      0.00000000	      0.00000000	     86.15759440	    -17.91374552	     37.93875357	     46.18733203	     42.32351269	      0.00000000	      0.00000000
      0.04500000	    -13.06603422	     -0.86693909	      2.27933065	      0.19534647	      1.04187263	     -0.24137494	      0.00000000	      0.50000000	      0.00000000	      0.25000000	     48.01220855	     -4.63246573	      1.58228756	     89.28018969	      1.55823327	     20.50943655	     -3.98234894	      0.00000000	      0.00000000	     70.56966209	     -6.68460487	     -0.78596106	     71.65850269	      1.25067681	     -0.40464845	     -3.13902230	      0.00000000	      0.00000000	    -57.57104775	      1.53475951	     -1.38211764	     88.71526314	    -12.83140726	     36.91009525	     37.72019645	     41.29331688	      0.00000000	      0.00000000	     86.30806802	    -17.83141408	     38.51720172	     45.96587762	     42.49847332	      0.00000000	      0.00000000
      0.05000000	    -13.09950363	     -0.87469169	      2.18742133	      0.19537577	      1.04179603	     -0.24119791	      0.00000000	      0.50000000	      0.00000000	      0.25000000	     48.06359458	     -4.53063661	      1.66195326	     89.27389073	      1.55812333	     20.45161159	     -4.04843511	      0.00000000	      0.00000000	     70.61654601	     -6.80433776	     -0.85066555	     71.70033343	      1.25140689	     -0.42024586	     -3.18622473	      0.00000000	      0.00000000	    -57.55272696	      1.46815236	     -1.35235958	     88.74506994	    -13.14737408	     37.74731678	     38.02023371	     41.38662495	      0.00000000	      0.00000000	     86.30496470	    -18.11195591	     38.88472259	     46.24070584	     42.60641711	      0.00000000	      0.00000000
